<?xml version="1.0" encoding="UTF-8" standalone="no"?>
<!-- Created with Inkscape (http://www.inkscape.org/) -->

<svg
   width="1200"
   height="630"
   viewBox="0 0 317.5 166.6875"
   version="1.1"
   id="svg5"
   sodipodi:docname="aaam-og.svg"
   inkscape:version="1.2.2 (b0a8486541, 2022-12-01)"
   inkscape:export-filename="aaam-og.png"
   inkscape:export-xdpi="96"
   inkscape:export-ydpi="96"
   xmlns:inkscape="http://www.inkscape.org/namespaces/inkscape"
   xmlns:sodipodi="http://sodipodi.sourceforge.net/DTD/sodipodi-0.dtd"
   xmlns="http://www.w3.org/2000/svg"
   xmlns:svg="http://www.w3.org/2000/svg">
  <sodipodi:namedview
     id="namedview7"
     pagecolor="#ffffff"
     bordercolor="#000000"
     borderopacity="0.25"
     inkscape:showpageshadow="2"
     inkscape:pageopacity="0.0"
     inkscape:pagecheckerboard="0"
     inkscape:deskcolor="#d1d1d1"
     inkscape:document-units="mm"
     showgrid="false"
     inkscape:zoom="0.70710678"
     inkscape:cx="774.98903"
     inkscape:cy="337.28994"
     inkscape:window-width="1920"
     inkscape:window-height="1131"
     inkscape:window-x="0"
     inkscape:window-y="0"
     inkscape:window-maximized="1"
     inkscape:current-layer="layer1" />
  <defs
     id="defs2" />
  <g
     inkscape:label="Layer 1"
     inkscape:groupmode="layer"
     id="layer1">
    <rect
       style="fill:#ffffff;stroke-width:0.790128;stroke-linecap:round;paint-order:stroke fill markers;stop-color:#000000;stroke:none"
       id="rect291"
       width="317.5"
       height="166.6875"
       x="0"
       y="0" />
    <g
       id="g259"
       transform="matrix(0.6836098,0,0,0.6836098,12.168219,-17.552477)">
      <path
         id="path1148"
         style="stroke-width:4.56499;stroke-linecap:round;stroke-linejoin:bevel;paint-order:stroke fill markers;stop-color:#000000"
         d="M 107.04568 50.714986 A 100.27237 100.27237 0 0 0 92.070615 51.916922 L 92.070615 146.12376 C 94.368986 145.63587 96.796452 145.71854 99.127265 146.43748 C 104.39505 148.06233 108.24528 152.64584 108.93552 158.11516 A 4.6809049 4.6809049 0 0 1 108.93778 159.26342 A 4.6809049 4.6809049 0 0 1 109.09729 160.47292 C 109.09729 176.63311 100.41476 191.56928 86.373136 199.56834 C 72.331509 207.5674 55.056951 207.41891 41.15615 199.17752 C 27.255349 190.93616 18.835125 175.85132 19.115364 159.69355 A 4.6809049 4.6809049 0 0 1 19.259747 158.72217 A 4.6809049 4.6809049 0 0 1 19.293008 158.11516 C 19.983243 152.64584 23.833466 148.06233 29.10126 146.43748 C 31.410777 145.72511 33.815817 145.63632 36.095923 146.1094 L 36.095923 80.13445 A 100.27237 100.27237 0 0 0 6.7732189 150.98745 A 100.27237 100.27237 0 0 0 107.04568 251.25915 A 100.27237 100.27237 0 0 0 122.01848 250.05722 L 122.01848 155.85038 C 119.71989 156.33809 117.29242 156.25628 114.96183 155.53742 C 109.69403 153.91257 105.84608 149.32905 105.15584 143.85974 A 4.6809049 4.6809049 0 0 1 105.16114 142.73037 A 4.6809049 4.6809049 0 0 1 104.99407 141.49971 C 104.99407 125.33949 113.67508 110.40337 127.71671 102.40428 C 134.73731 98.404879 142.56651 96.442536 150.37812 96.510262 L 150.37888 96.510262 C 158.19048 96.578249 165.98427 98.676063 172.93445 102.79661 C 186.83527 111.03799 195.25624 126.12354 194.976 142.28135 A 4.6809049 4.6809049 0 0 1 194.83237 143.24441 A 4.6809049 4.6809049 0 0 1 194.79608 143.85974 C 194.10585 149.32905 190.25714 153.91257 184.98934 155.53742 C 182.67984 156.24979 180.27554 156.33781 177.99544 155.86474 L 177.99544 221.83893 A 100.27237 100.27237 0 0 0 207.31814 150.98745 A 100.27237 100.27237 0 0 0 107.04568 50.714986 z M 83.164193 53.672203 A 100.27237 100.27237 0 0 0 45.003857 72.323378 L 45.003857 153.45104 A 4.4537501 4.4537501 0 0 1 44.944894 153.97112 A 4.6809049 4.6809049 0 0 1 44.895758 154.40503 A 4.4537501 4.4537501 0 0 1 44.888955 154.45038 A 4.6809049 4.6809049 0 0 1 43.374818 157.17024 A 4.6809049 4.6809049 0 0 1 36.769461 156.76203 C 35.538497 155.36955 33.637163 154.83465 31.861178 155.38245 C 30.08519 155.93025 28.814639 157.44295 28.581933 159.28685 A 4.6809049 4.6809049 0 0 1 28.473834 159.8281 A 4.6809049 4.6809049 0 0 1 28.47459 159.85532 C 28.252422 172.66502 34.909462 184.59165 45.929877 191.12531 C 56.950293 197.65897 70.607954 197.77684 81.740012 191.43524 C 92.872073 185.09367 99.73428 173.28455 99.73428 160.47292 A 4.6809049 4.6809049 0 0 1 99.797023 159.99819 A 4.6809049 4.6809049 0 0 1 99.646592 159.28685 C 99.413886 157.44295 98.144846 155.93025 96.368859 155.38245 C 94.592874 154.83465 92.691541 155.36957 91.460576 156.76203 A 4.6809049 4.6809049 0 0 1 84.853707 157.17024 A 4.6809049 4.6809049 0 0 1 83.403069 154.71043 A 4.4537501 4.4537501 0 0 1 83.164193 153.34748 L 83.164193 53.672203 z M 150.29724 105.86571 C 144.11415 105.81205 137.91663 107.3681 132.35059 110.5389 C 121.21852 116.88048 114.35481 128.68804 114.35481 141.49971 A 4.6809049 4.6809049 0 0 1 114.31702 142.0591 A 4.6809049 4.6809049 0 0 1 114.4425 142.68729 C 114.67521 144.5312 115.94576 146.04238 117.72174 146.59018 C 119.49773 147.13799 121.39907 146.60304 122.63003 145.2106 A 4.6809049 4.6809049 0 0 1 129.23765 144.80466 A 4.6809049 4.6809049 0 0 1 130.71021 147.31663 A 4.4537501 4.4537501 0 0 1 130.92717 148.62666 L 130.92717 248.30194 A 100.27237 100.27237 0 0 0 169.0875 229.65152 L 169.0875 148.5231 A 4.4537501 4.4537501 0 0 1 169.16839 147.80421 A 4.6809049 4.6809049 0 0 1 169.18729 147.63261 A 4.4537501 4.4537501 0 0 1 169.2213 147.46706 A 4.6809049 4.6809049 0 0 1 170.71427 144.80466 A 4.6809049 4.6809049 0 0 1 177.32114 145.2106 C 178.5521 146.60307 180.45344 147.13799 182.22943 146.59018 C 184.00542 146.04238 185.27596 144.5312 185.50867 142.68729 A 4.6809049 4.6809049 0 0 1 185.61904 142.13621 A 4.6809049 4.6809049 0 0 1 185.61677 142.11882 C 185.83894 129.3091 179.17963 117.38326 168.15922 110.84959 C 162.649 107.58274 156.48032 105.91937 150.29724 105.86571 z M 147.98483 108.77379 L 147.98483 108.77455 C 155.07137 108.69673 161.20058 114.01091 162.09208 121.07511 A 4.6809049 4.6809049 0 0 1 158.03498 126.30543 A 4.6809049 4.6809049 0 0 1 152.80467 122.24681 C 152.49498 119.7929 150.44612 118.05075 147.97425 118.13755 A 4.6809049 4.6809049 0 0 1 143.13249 113.62387 A 4.6809049 4.6809049 0 0 1 147.64617 108.78211 C 147.75912 108.77811 147.87235 108.77479 147.98483 108.77379 z M 56.667928 175.63318 A 4.6809049 4.6809049 0 0 1 61.287445 179.72884 C 61.597134 182.18276 63.645254 183.9249 66.117111 183.8381 A 4.6809049 4.6809049 0 0 1 70.958873 188.35178 A 4.6809049 4.6809049 0 0 1 66.445187 193.19355 C 59.216391 193.44743 52.905693 188.07686 52.000032 180.90054 A 4.6809049 4.6809049 0 0 1 56.056377 175.67023 A 4.6809049 4.6809049 0 0 1 56.667928 175.63318 z " />
    </g>
    <text
       xml:space="preserve"
       style="font-style:italic;font-weight:bold;font-size:16.9333px;line-height:1;font-family:'Bitstream Vera Sans';-inkscape-font-specification:'Bitstream Vera Sans Bold Italic';fill:#000000;stroke:#000000;stroke-width:0.777999;stroke-linecap:round;paint-order:stroke fill markers;stop-color:#000000"
       x="230.36774"
       y="73.398476"
       id="text369"><tspan
         sodipodi:role="line"
         id="tspan367"
         style="font-style:normal;font-variant:normal;font-weight:normal;font-stretch:normal;font-size:16.9333px;font-family:'Bitstream Vera Sans';-inkscape-font-specification:'Bitstream Vera Sans';text-align:center;text-anchor:middle;fill:#000000;fill-opacity:1;stroke:none;stroke-width:0.778"
         x="230.36774"
         y="73.398476">Another Art</tspan><tspan
         sodipodi:role="line"
         style="font-style:normal;font-variant:normal;font-weight:normal;font-stretch:normal;font-size:16.9333px;font-family:'Bitstream Vera Sans';-inkscape-font-specification:'Bitstream Vera Sans';text-align:center;text-anchor:middle;fill:#000000;fill-opacity:1;stroke:none;stroke-width:0.778"
         x="230.36774"
         y="90.331779"
         id="tspan748">Another Music</tspan><tspan
         sodipodi:role="line"
         style="font-style:oblique;font-variant:normal;font-weight:normal;font-stretch:normal;font-size:7.05556px;font-family:'Bitstream Vera Sans';-inkscape-font-specification:'Bitstream Vera Sans Oblique';text-align:center;text-anchor:middle;stroke:none;stroke-width:0.778"
         x="230.36774"
         y="107.26508"
         id="tspan1306">No format, just feeling</tspan></text>
  </g>
</svg>
