<?xml version="1.0" encoding="UTF-8" standalone="no"?>
<!-- Created with Inkscape (http://www.inkscape.org/) -->

<svg
   width="64"
   height="64"
   viewBox="0 0 16.933333 16.933333"
   version="1.1"
   id="svg5"
   sodipodi:docname="favicon.svg"
   inkscape:version="1.2.2 (b0a8486541, 2022-12-01)"
   inkscape:export-filename="favicon.png"
   inkscape:export-xdpi="96"
   inkscape:export-ydpi="96"
   xmlns:inkscape="http://www.inkscape.org/namespaces/inkscape"
   xmlns:sodipodi="http://sodipodi.sourceforge.net/DTD/sodipodi-0.dtd"
   xmlns="http://www.w3.org/2000/svg"
   xmlns:svg="http://www.w3.org/2000/svg">
  <sodipodi:namedview
     id="namedview7"
     pagecolor="#ffffff"
     bordercolor="#000000"
     borderopacity="0.25"
     inkscape:showpageshadow="2"
     inkscape:pageopacity="0.0"
     inkscape:pagecheckerboard="0"
     inkscape:deskcolor="#d1d1d1"
     inkscape:document-units="mm"
     showgrid="false"
     inkscape:zoom="4"
     inkscape:cx="160"
     inkscape:cy="53.625"
     inkscape:window-width="1920"
     inkscape:window-height="1131"
     inkscape:window-x="0"
     inkscape:window-y="0"
     inkscape:window-maximized="1"
     inkscape:current-layer="layer1" />
  <defs
     id="defs2" />
  <g
     inkscape:label="Layer 1"
     inkscape:groupmode="layer"
     id="layer1">
    <g
       id="g259"
       transform="matrix(0.08179786,0,0,0.08179827,-0.28943013,-3.8838148)">
      <path
         id="path1148"
         style="stroke-width:4.56499;stroke-linecap:round;stroke-linejoin:bevel;paint-order:stroke fill markers;stop-color:#000000"
         d="m 107.04568,50.714986 a 100.27237,100.27237 0 0 0 -14.975065,1.201936 v 94.206838 c 2.298371,-0.48789 4.725837,-0.40522 7.05665,0.31372 5.267785,1.62485 9.118015,6.20836 9.808255,11.67768 a 4.6809049,4.6809049 0 0 1 0.002,1.14826 4.6809049,4.6809049 0 0 1 0.15951,1.2095 c 0,16.16019 -8.68253,31.09636 -22.724154,39.09542 -14.041627,7.99906 -31.316185,7.85057 -45.216986,-0.39082 -13.900801,-8.24136 -22.321025,-23.3262 -22.040786,-39.48397 a 4.6809049,4.6809049 0 0 1 0.144383,-0.97138 4.6809049,4.6809049 0 0 1 0.03326,-0.60701 c 0.690235,-5.46932 4.540458,-10.05283 9.808252,-11.67768 2.309517,-0.71237 4.714557,-0.80116 6.994663,-0.32808 V 80.13445 a 100.27237,100.27237 0 0 0 -29.3227041,70.853 100.27237,100.27237 0 0 0 100.2724621,100.2717 100.27237,100.27237 0 0 0 14.9728,-1.20193 v -94.20684 c -2.29859,0.48771 -4.72606,0.4059 -7.05665,-0.31296 -5.2678,-1.62485 -9.11575,-6.20837 -9.80599,-11.67768 a 4.6809049,4.6809049 0 0 1 0.005,-1.12937 4.6809049,4.6809049 0 0 1 -0.16707,-1.23066 c 0,-16.16022 8.68101,-31.09634 22.72264,-39.09543 7.0206,-3.999401 14.8498,-5.961744 22.66141,-5.894018 h 7.6e-4 c 7.8116,0.06799 15.60539,2.165801 22.55557,6.286348 13.90082,8.24138 22.32179,23.32693 22.04155,39.48474 a 4.6809049,4.6809049 0 0 1 -0.14363,0.96306 4.6809049,4.6809049 0 0 1 -0.0363,0.61533 c -0.69023,5.46931 -4.53894,10.05283 -9.80674,11.67768 -2.3095,0.71237 -4.7138,0.80039 -6.9939,0.32732 v 65.97419 A 100.27237,100.27237 0 0 0 207.31814,150.98745 100.27237,100.27237 0 0 0 107.04568,50.714986 Z M 83.164193,53.672203 A 100.27237,100.27237 0 0 0 45.003857,72.323378 v 81.127662 a 4.4537501,4.4537501 0 0 1 -0.05896,0.52008 4.6809049,4.6809049 0 0 1 -0.04914,0.43391 4.4537501,4.4537501 0 0 1 -0.0068,0.0453 4.6809049,4.6809049 0 0 1 -1.514137,2.71986 4.6809049,4.6809049 0 0 1 -6.605357,-0.40821 c -1.230964,-1.39248 -3.132298,-1.92738 -4.908283,-1.37958 -1.775988,0.5478 -3.046539,2.0605 -3.279245,3.9044 a 4.6809049,4.6809049 0 0 1 -0.108099,0.54125 4.6809049,4.6809049 0 0 1 7.56e-4,0.0272 c -0.222168,12.8097 6.434872,24.73633 17.455287,31.26999 11.020416,6.53366 24.678077,6.65153 35.810135,0.30993 11.132061,-6.34157 17.994268,-18.15069 17.994268,-30.96232 a 4.6809049,4.6809049 0 0 1 0.06274,-0.47473 4.6809049,4.6809049 0 0 1 -0.150431,-0.71134 c -0.232706,-1.8439 -1.501746,-3.3566 -3.277733,-3.9044 -1.775985,-0.5478 -3.677318,-0.0129 -4.908283,1.37958 a 4.6809049,4.6809049 0 0 1 -6.606869,0.40821 4.6809049,4.6809049 0 0 1 -1.450638,-2.45981 4.4537501,4.4537501 0 0 1 -0.238876,-1.36295 z m 67.133047,52.193507 c -6.18309,-0.0537 -12.38061,1.50239 -17.94665,4.67319 -11.13207,6.34158 -17.99578,18.14914 -17.99578,30.96081 a 4.6809049,4.6809049 0 0 1 -0.0378,0.55939 4.6809049,4.6809049 0 0 1 0.12548,0.62819 c 0.23271,1.84391 1.50326,3.35509 3.27924,3.90289 1.77599,0.54781 3.67733,0.0129 4.90829,-1.37958 a 4.6809049,4.6809049 0 0 1 6.60762,-0.40594 4.6809049,4.6809049 0 0 1 1.47256,2.51197 4.4537501,4.4537501 0 0 1 0.21696,1.31003 v 99.67528 A 100.27237,100.27237 0 0 0 169.0875,229.65152 V 148.5231 a 4.4537501,4.4537501 0 0 1 0.0809,-0.71889 4.6809049,4.6809049 0 0 1 0.0189,-0.1716 4.4537501,4.4537501 0 0 1 0.034,-0.16555 4.6809049,4.6809049 0 0 1 1.49297,-2.6624 4.6809049,4.6809049 0 0 1 6.60687,0.40594 c 1.23096,1.39247 3.1323,1.92739 4.90829,1.37958 1.77599,-0.5478 3.04653,-2.05898 3.27924,-3.90289 a 4.6809049,4.6809049 0 0 1 0.11037,-0.55108 4.6809049,4.6809049 0 0 1 -0.002,-0.0174 c 0.22217,-12.80972 -6.43714,-24.73556 -17.45755,-31.26923 -5.51022,-3.26685 -11.6789,-4.93022 -17.86198,-4.98388 z m -2.31241,2.90808 v 7.6e-4 c 7.08654,-0.0778 13.21575,5.23636 14.10725,12.30056 a 4.6809049,4.6809049 0 0 1 -4.0571,5.23032 4.6809049,4.6809049 0 0 1 -5.23031,-4.05862 c -0.30969,-2.45391 -2.35855,-4.19606 -4.83042,-4.10926 a 4.6809049,4.6809049 0 0 1 -4.84176,-4.51368 4.6809049,4.6809049 0 0 1 4.51368,-4.84176 c 0.11295,-0.004 0.22618,-0.007 0.33866,-0.008 z m -91.316902,66.85939 a 4.6809049,4.6809049 0 0 1 4.619517,4.09566 c 0.309689,2.45392 2.357809,4.19606 4.829666,4.10926 a 4.6809049,4.6809049 0 0 1 4.841762,4.51368 4.6809049,4.6809049 0 0 1 -4.513686,4.84177 c -7.228796,0.25388 -13.539494,-5.11669 -14.445155,-12.29301 a 4.6809049,4.6809049 0 0 1 4.056345,-5.23031 4.6809049,4.6809049 0 0 1 0.611551,-0.037 z" />
    </g>
  </g>
</svg>
